<!DOCTYPE svg PUBLIC "-//W3C//DTD SVG 1.1//EN" "http://www.w3.org/Graphics/SVG/1.1/DTD/svg11.dtd">
<!-- Uploaded to: SVG Repo, www.svgrepo.com, Transformed by: SVG Repo Mixer Tools -->
<svg width="800px" height="800px" viewBox="-61.44 -61.44 634.88 634.88" xmlns="http://www.w3.org/2000/svg" fill="#ffffff" stroke="#ffffff" stroke-width="13.312000000000001" transform="rotate(0)">
<g id="SVGRepo_bgCarrier" stroke-width="0">
<rect x="-61.44" y="-61.44" width="634.88" height="634.88" rx="63.488" fill="#ff881a" strokewidth="0"/>
</g>
<g id="SVGRepo_tracerCarrier" stroke-linecap="round" stroke-linejoin="round" stroke="#fcfcfc" stroke-width="14.336000000000002"> <path fill="var(--ci-primary-color, #ffffff)" d="M459.26,96,328,225.7V96H293.475L168,223.267V16H16V496H496V96ZM464,464H48V48h88V264h36.778L296,139.018V264h38.764L464,136.3Z" class="ci-primary"/> <polygon fill="var(--ci-primary-color, #ffffff)" points="136 328 136 336 168 336 168 328 168 304 136 304 136 328" class="ci-primary"/> <rect width="32" height="32" x="136" y="376" fill="var(--ci-primary-color, #ffffff)" class="ci-primary"/> <polygon fill="var(--ci-primary-color, #ffffff)" points="216 328 216 336 248 336 248 328 248 304 216 304 216 328" class="ci-primary"/> <rect width="32" height="32" x="216" y="376" fill="var(--ci-primary-color, #ffffff)" class="ci-primary"/> <polygon fill="var(--ci-primary-color, #ffffff)" points="296 328 296 336 328 336 328 328 328 304 296 304 296 328" class="ci-primary"/> <rect width="32" height="32" x="296" y="376" fill="var(--ci-primary-color, #ffffff)" class="ci-primary"/> <rect width="32" height="32" x="376" y="304" fill="var(--ci-primary-color, #ffffff)" class="ci-primary"/> <rect width="32" height="32" x="376" y="376" fill="var(--ci-primary-color, #ffffff)" class="ci-primary"/> </g>
<g id="SVGRepo_iconCarrier"> <path fill="var(--ci-primary-color, #ffffff)" d="M459.26,96,328,225.7V96H293.475L168,223.267V16H16V496H496V96ZM464,464H48V48h88V264h36.778L296,139.018V264h38.764L464,136.3Z" class="ci-primary"/> <polygon fill="var(--ci-primary-color, #ffffff)" points="136 328 136 336 168 336 168 328 168 304 136 304 136 328" class="ci-primary"/> <rect width="32" height="32" x="136" y="376" fill="var(--ci-primary-color, #ffffff)" class="ci-primary"/> <polygon fill="var(--ci-primary-color, #ffffff)" points="216 328 216 336 248 336 248 328 248 304 216 304 216 328" class="ci-primary"/> <rect width="32" height="32" x="216" y="376" fill="var(--ci-primary-color, #ffffff)" class="ci-primary"/> <polygon fill="var(--ci-primary-color, #ffffff)" points="296 328 296 336 328 336 328 328 328 304 296 304 296 328" class="ci-primary"/> <rect width="32" height="32" x="296" y="376" fill="var(--ci-primary-color, #ffffff)" class="ci-primary"/> <rect width="32" height="32" x="376" y="304" fill="var(--ci-primary-color, #ffffff)" class="ci-primary"/> <rect width="32" height="32" x="376" y="376" fill="var(--ci-primary-color, #ffffff)" class="ci-primary"/> </g>
</svg>